<svg width="44" height="44" viewBox="0 0 44 44" fill="none" xmlns="http://www.w3.org/2000/svg">
<rect width="44" height="44" rx="4" fill="#FFE2E5"/>
<path d="M32 22C32 16.4772 27.5228 12 22 12C16.4772 12 12 16.4772 12 22C12 26.6596 15.1869 30.5748 19.5 31.685" stroke="#FA5A7E" stroke-width="2" stroke-linecap="round"/>
<path d="M27 27.6855H32" stroke="#FA5A7E" stroke-width="2" stroke-linecap="round"/>
<path d="M23 31.6855H32" stroke="#FA5A7E" stroke-width="2" stroke-linecap="round"/>
<path d="M19.3697 22.3535C19.1744 22.1582 19.1744 21.8416 19.3697 21.6464L21.6466 19.3695C21.8418 19.1742 22.1584 19.1742 22.3537 19.3695L24.6306 21.6464C24.8259 21.8416 24.8259 22.1582 24.6306 22.3535L22.3537 24.6304C22.1584 24.8256 21.8418 24.8256 21.6466 24.6304L19.3697 22.3535Z" fill="#FA5A7E" stroke="#FA5A7E"/>
</svg>
