<svg width="44" height="44" viewBox="0 0 44 44" fill="none" xmlns="http://www.w3.org/2000/svg">
<rect width="44" height="44" rx="4" fill="#FFF4DE"/>
<path d="M17.4009 25C15.9242 23.6303 15 21.6731 15 19.5C15 15.3579 18.3579 12 22.5 12C26.6421 12 30 15.3579 30 19.5C30 22.7655 27.913 25.5436 25 26.5732" stroke="#FF8A16" stroke-width="2"/>
<path d="M12 28H14.4843C14.6785 28 14.8551 27.8876 14.9373 27.7116L15.3956 26.7304C15.8887 25.6747 16.9485 25 18.1137 25H23.4822C23.9775 25 24.3794 25.4006 24.381 25.8959L24.3878 27.9903C24.3878 27.9956 24.3835 28 24.3781 28V28M21.3128 28H24.3781M12 32H23.1487C24.5714 32 25.9486 31.4987 27.0383 30.584L31.5288 26.8152C32.0882 26.3456 32.2234 25.539 31.8476 24.9127V24.9127C31.3943 24.1572 30.3869 23.9599 29.6821 24.4886L25.0071 27.9953C25.0031 27.9984 24.9982 28 24.9932 28H24.3781" stroke="#FF8A16" stroke-width="2" stroke-linecap="round"/>
<path d="M21.7678 19.457L22.4566 18.7682L23.1455 19.457L22.4566 20.1459L21.7678 19.457Z" stroke="#FF8A16" stroke-width="2.5"/>
</svg>
