<svg width="10" height="14" viewBox="0 0 10 14" fill="none" xmlns="http://www.w3.org/2000/svg">
<path d="M8.79336 5.93744C8.9835 5.93744 9.15498 5.79425 9.22783 5.57452C9.30068 5.35504 9.26035 5.10211 9.12598 4.9339L6.97275 2.24261C6.90146 2.1535 6.78604 2.1535 6.71475 2.24261L6.30762 2.75153C6.23633 2.84064 6.23633 2.98505 6.30762 3.07404L7.65801 4.7619H0.843359C0.743848 4.7619 0.663086 4.86273 0.663086 4.98724V5.71222C0.663086 5.83661 0.74375 5.93756 0.843359 5.93756H8.79336V5.93744ZM9.15713 8.05963H1.20938C1.01924 8.05963 0.847754 8.20282 0.774902 8.42255C0.702051 8.64203 0.742383 8.89496 0.876758 9.06317L3.02998 11.7546C3.10127 11.8437 3.2167 11.8437 3.28799 11.7546L3.69512 11.2457C3.76641 11.1566 3.76641 11.0121 3.69512 10.9232L2.34473 9.23517H9.15713C9.25791 9.23517 9.33955 9.133 9.33955 9.00714V8.28778C9.33955 8.1618 9.25791 8.05963 9.15713 8.05963Z" fill="black"/>
</svg>
