<svg width="48" height="40" viewBox="0 0 48 40" fill="none" xmlns="http://www.w3.org/2000/svg">
<rect x="4" y="4" width="40" height="32" rx="3" fill="#0000C9"/>
<path d="M29.8125 16.0625H18.5625C18.4133 16.0625 18.2702 16.0032 18.1648 15.8977C18.0593 15.7923 18 15.6492 18 15.5C18 15.3508 18.0593 15.2077 18.1648 15.1023C18.2702 14.9968 18.4133 14.9375 18.5625 14.9375H28.125C28.2742 14.9375 28.4173 14.8782 28.5227 14.7727C28.6282 14.6673 28.6875 14.5242 28.6875 14.375C28.6875 14.2258 28.6282 14.0827 28.5227 13.9773C28.4173 13.8718 28.2742 13.8125 28.125 13.8125H18.5625C18.1149 13.8125 17.6857 13.9903 17.3693 14.3068C17.0528 14.6232 16.875 15.0524 16.875 15.5V24.5C16.875 24.9475 17.0528 25.3767 17.3693 25.6932C17.6857 26.0097 18.1149 26.1875 18.5625 26.1875H29.8125C30.1109 26.1875 30.397 26.069 30.608 25.858C30.819 25.647 30.9375 25.3609 30.9375 25.0625V17.1875C30.9375 16.8891 30.819 16.603 30.608 16.392C30.397 16.181 30.1109 16.0625 29.8125 16.0625ZM29.8125 25.0625H18.5625C18.4133 25.0625 18.2702 25.0032 18.1648 24.8977C18.0593 24.7923 18 24.6492 18 24.5V17.0911C18.1806 17.1552 18.3709 17.1878 18.5625 17.1875H29.8125V25.0625ZM26.4375 20.8438C26.4375 20.6769 26.487 20.5138 26.5797 20.3749C26.6724 20.2362 26.8042 20.1281 26.9584 20.0643C27.1126 20.0004 27.2822 19.9836 27.4459 20.0162C27.6095 20.0487 27.7599 20.1292 27.8779 20.2471C27.9958 20.3651 28.0762 20.5155 28.1088 20.6791C28.1413 20.8428 28.1246 21.0124 28.0607 21.1666C27.9969 21.3208 27.8887 21.4526 27.7501 21.5453C27.6112 21.638 27.4481 21.6875 27.2812 21.6875C27.0575 21.6875 26.8429 21.5986 26.6846 21.4404C26.5264 21.2821 26.4375 21.0675 26.4375 20.8438Z" fill="#F5FBFF"/>
</svg>
