<svg width="14" height="14" viewBox="0 0 14 14" fill="none" xmlns="http://www.w3.org/2000/svg">
<path d="M4.08322 3.4974V1.7474C4.08322 1.42523 4.34439 1.16406 4.66655 1.16406H11.6666C11.9887 1.16406 12.2499 1.42523 12.2499 1.7474V9.91406C12.2499 10.2362 11.9887 10.4974 11.6666 10.4974H9.91655V12.2469C9.91655 12.5693 9.65411 12.8307 9.32925 12.8307H2.33722C2.01284 12.8307 1.75 12.5714 1.75 12.2469L1.75152 4.08124C1.75157 3.75879 2.01404 3.4974 2.33883 3.4974H4.08322ZM2.91808 4.66406L2.91678 11.6641H8.74988V4.66406H2.91808ZM5.24988 3.4974H9.91655V9.33073H11.0832V2.33073H5.24988V3.4974Z" fill="#000"/>
</svg>
