<svg width="208" height="40" viewBox="0 0 208 40" fill="none" xmlns="http://www.w3.org/2000/svg">
<g clip-path="url(#clip0_6569_38035)">
<path d="M21.0463 6.52541L6.14233 32.3367C5.73763 33.0373 6.24281 33.9108 7.04941 33.9108H10.4656L21.0408 15.1748C21.4427 14.4631 22.467 14.4631 22.8661 15.1748L33.4412 33.9108H36.8547C37.6613 33.9108 38.1664 33.0373 37.7617 32.3367L22.8605 6.52541C22.4558 5.82486 21.4483 5.82486 21.0436 6.52541H21.0463Z" fill="#0000C9"/>
<path d="M20.971 23.5145L14.9675 33.9111H28.9338L22.9303 23.5145C22.4949 22.7582 21.4036 22.7582 20.9682 23.5145H20.971Z" fill="#0000C9"/>
<path d="M57.3713 25.3267H48.0632L45.8723 31.1068H42.0933L50.8598 8.80664H54.6082L63.3747 31.1068H59.5957L57.3713 25.3267ZM49.2383 22.2454H56.1963L52.9252 13.6686C52.8303 13.4453 52.7661 13.1913 52.7354 12.9066C52.7047 13.1913 52.6405 13.4453 52.5456 13.6686L49.241 22.2454H49.2383Z" fill="#0000C9"/>
<path d="M74.5389 18.206C74.3798 18.1753 74.2319 18.1418 73.9472 18.1418C70.8017 18.1418 68.9289 20.3076 68.9289 24.5667V31.1116H65.4988V15.5378H68.9289V18.4293C69.6267 16.3639 71.3125 15.1582 73.7574 15.1582C74.1063 15.1582 74.3184 15.1889 74.5417 15.2224V18.2088L74.5389 18.206Z" fill="#0000C9"/>
<path d="M86.7523 18.2064H82.75V25.357C82.75 27.3582 83.5119 28.1201 85.5131 28.1201C85.9262 28.1201 86.3085 28.1201 86.7523 28.0894V31.0423C86.275 31.073 85.4489 31.1065 84.846 31.1065C80.6846 31.1065 79.3198 28.9463 79.3198 25.2928V18.2036H76.6516V15.2173H79.3198V10.8828H82.75V15.2173H86.7523V18.2036V18.2064Z" fill="#0000C9"/>
<path d="M92.2644 24.0139C92.5184 26.6514 94.5503 28.3344 97.0622 28.3344C99.094 28.3344 100.716 27.4441 101.413 25.9844H104.972C104.02 29.194 100.875 31.2566 97.0929 31.2566C92.1053 31.2566 88.8008 27.5083 88.8008 23.0287C88.8008 18.5491 92.2644 14.8008 96.9952 14.8008C101.726 14.8008 105.19 18.5184 105.19 23.0287C105.19 23.3776 105.19 23.7599 105.159 24.0139H92.2616H92.2644ZM101.637 21.6304C101.318 19.3446 99.3815 17.723 96.998 17.723C94.6145 17.723 92.711 19.2804 92.3593 21.6304H101.634H101.637Z" fill="#0000C9"/>
<path d="M107.308 8.79297H110.738V25.5167C110.738 27.3281 111.629 28.1849 113.122 28.1849C113.406 28.1849 113.976 28.1849 114.294 28.1542V31.0764C113.85 31.1071 112.996 31.1406 112.424 31.1406C109.025 31.1406 107.311 29.2985 107.311 25.6144V8.79297H107.308Z" fill="#0000C9"/>
<path d="M129.954 31.1087V28.6833C128.939 30.2407 126.809 31.2566 124.459 31.2566C120.138 31.2566 116.326 28.0804 116.326 23.0287C116.326 17.977 120.138 14.8008 124.459 14.8008C126.809 14.8008 128.939 15.8167 129.954 17.3741V15.0715H133.385V31.1059H129.954V31.1087ZM124.872 28.2395C127.604 28.2395 129.954 26.1742 129.954 23.0287C129.954 19.8832 127.604 17.8179 124.872 17.8179C122.14 17.8179 119.79 19.8832 119.79 23.0287C119.79 26.1742 122.14 28.2395 124.872 28.2395Z" fill="#0000C9"/>
</g>
<defs>
<clipPath id="clip0_6569_38035">
<rect width="127.385" height="27.9101" fill="white" transform="translate(6 6)"/>
</clipPath>
</defs>
</svg>
