<svg width="208" height="40" viewBox="0 0 208 40" fill="none" xmlns="http://www.w3.org/2000/svg">
<path d="M19.4613 3.95176L3.15598 32.1899C2.71323 32.9563 3.26591 33.9121 4.14835 33.9121H7.88575L19.4552 13.4144C19.8949 12.6357 21.0155 12.6357 21.4522 13.4144L33.0216 33.9121H36.756C37.6384 33.9121 38.1911 32.9563 37.7483 32.1899L21.446 3.95176C21.0033 3.18535 19.901 3.18535 19.4583 3.95176H19.4613Z" fill="#0000C9"/>
<path d="M19.379 22.5405L12.811 33.9146H28.0904L21.5225 22.5405C21.0461 21.7131 19.8523 21.7131 19.3759 22.5405H19.379Z" fill="#0000C9"/>
<path d="M66.1437 18.7966H56.3651L54.0634 24.8691H50.0933L59.3031 1.44141H63.2409L72.4507 24.8691H68.4806L66.1437 18.7966ZM57.5995 15.5596H64.9093L61.4728 6.54916C61.3731 6.31459 61.3057 6.04777 61.2734 5.74869C61.2412 6.04777 61.1737 6.31459 61.0741 6.54916L57.6024 15.5596H57.5995Z" fill="#0000C9"/>
<path d="M84.1793 11.3171C84.0121 11.2849 83.8567 11.2497 83.5577 11.2497C80.2532 11.2497 78.2857 13.525 78.2857 17.9994V24.8752H74.6821V8.514H78.2857V11.5517C79.0187 9.38191 80.7897 8.11523 83.3583 8.11523C83.7248 8.11523 83.9476 8.14749 84.1822 8.18267V11.32L84.1793 11.3171Z" fill="#0000C9"/>
<path d="M97.0103 11.3189H92.8056V18.831C92.8056 20.9333 93.6061 21.7338 95.7084 21.7338C96.1424 21.7338 96.5441 21.7338 97.0103 21.7015V24.8037C96.5089 24.836 95.641 24.8712 95.0076 24.8712C90.6358 24.8712 89.202 22.6017 89.202 18.7635V11.316H86.3989V8.17859H89.202V3.625H92.8056V8.17859H97.0103V11.316V11.3189Z" fill="#0000C9"/>
<path d="M102.801 17.4211C103.068 20.192 105.202 21.96 107.841 21.96C109.976 21.96 111.679 21.0247 112.412 19.4912H116.151C115.151 22.8631 111.846 25.03 107.873 25.03C102.634 25.03 99.1621 21.0921 99.1621 16.3861C99.1621 11.68 102.801 7.74219 107.771 7.74219C112.741 7.74219 116.38 11.6478 116.38 16.3861C116.38 16.7526 116.38 17.1543 116.347 17.4211H102.798H102.801ZM112.647 14.9171C112.313 12.5157 110.278 10.8121 107.774 10.8121C105.27 10.8121 103.27 12.4482 102.901 14.9171H112.644H112.647Z" fill="#0000C9"/>
<path d="M118.605 1.42969H122.209V18.999C122.209 20.9019 123.144 21.8021 124.713 21.8021C125.012 21.8021 125.61 21.8021 125.945 21.7698V24.8397C125.478 24.872 124.581 24.9072 123.98 24.9072C120.409 24.9072 118.608 22.972 118.608 19.1016V1.42969H118.605Z" fill="#0000C9"/>
<path d="M142.397 24.8746V22.3266C141.329 23.9627 139.092 25.03 136.623 25.03C132.084 25.03 128.079 21.6932 128.079 16.3861C128.079 11.0789 132.084 7.74219 136.623 7.74219C139.092 7.74219 141.329 8.80948 142.397 10.4456V8.0266H146V24.8716H142.397V24.8746ZM137.057 21.8604C139.928 21.8604 142.397 19.6906 142.397 16.3861C142.397 13.0816 139.928 10.9118 137.057 10.9118C134.187 10.9118 131.718 13.0816 131.718 16.3861C131.718 19.6906 134.187 21.8604 137.057 21.8604Z" fill="#0000C9"/>
<path d="M56.462 32.454C56.444 33.003 56.426 33.714 56.426 34.344C56.426 34.812 56.435 35.415 56.462 36H55.454C55.427 35.433 55.427 35.154 55.445 34.821C54.995 35.64 54.275 36.117 53.267 36.117C51.683 36.117 50.468 34.866 50.468 32.796C50.468 30.762 51.701 29.439 53.591 29.439C54.941 29.439 55.886 30.105 56.354 31.203L55.274 31.545C54.95 30.816 54.401 30.411 53.582 30.411C52.358 30.411 51.602 31.329 51.602 32.796C51.602 34.182 52.304 35.181 53.483 35.181C54.41 35.181 55.238 34.605 55.382 33.309H53.528V32.454H56.462ZM59.7403 36.117C58.2553 36.117 57.4453 35.064 57.4453 33.651C57.4453 32.238 58.2553 31.176 59.7403 31.176C61.2343 31.176 62.0353 32.238 62.0353 33.651C62.0353 35.064 61.2343 36.117 59.7403 36.117ZM59.7403 35.271C60.5323 35.271 60.9823 34.605 60.9823 33.651C60.9823 32.688 60.5323 32.022 59.7403 32.022C58.9573 32.022 58.5073 32.688 58.5073 33.651C58.5073 34.605 58.9573 35.271 59.7403 35.271ZM66.1111 31.284H67.2271L65.2831 36.027H64.2481L62.3041 31.284H63.4381L64.3921 33.732C64.5541 34.155 64.6711 34.506 64.7791 35.037C64.8781 34.542 65.0131 34.119 65.1571 33.741L66.1111 31.284ZM69.7951 31.176C71.2081 31.176 72.0001 32.13 71.9281 33.597L71.9191 33.795H68.5171C68.5711 34.713 69.0481 35.235 69.7951 35.235C70.3891 35.235 70.7851 34.965 70.9651 34.497L71.9191 34.686C71.6131 35.568 70.8571 36.117 69.8041 36.117C68.3821 36.117 67.4911 35.19 67.4911 33.669C67.4911 32.139 68.3551 31.176 69.7951 31.176ZM68.5711 33.066H70.9111C70.8301 32.382 70.4341 31.968 69.7861 31.968C69.1291 31.968 68.7061 32.373 68.5711 33.066ZM74.0074 32.382C74.2954 31.599 74.8894 31.185 75.6544 31.176V32.247C74.5204 32.175 74.0074 32.859 74.0074 34.029V36H72.9454C72.9544 35.208 72.9634 34.425 72.9634 33.633C72.9634 32.859 72.9544 32.067 72.9454 31.284H74.0344L74.0074 32.175V32.382ZM80.6139 36H79.5339L79.4619 35.109C79.1739 35.73 78.6789 36.117 78.0219 36.117C76.8159 36.117 76.0869 35.019 76.0869 33.651C76.0869 32.292 76.8069 31.176 78.0129 31.176C78.6429 31.176 79.1199 31.491 79.4169 32.022L79.4349 31.284H80.4789C80.4609 32.22 80.4519 32.859 80.4519 33.606C80.4519 34.371 80.5149 35.118 80.6139 36ZM78.3099 35.271C79.0299 35.271 79.4799 34.623 79.4799 33.597C79.4799 32.643 79.0839 32.022 78.3099 32.022C77.5449 32.022 77.1489 32.715 77.1489 33.651C77.1489 34.587 77.5539 35.271 78.3099 35.271ZM85.9195 32.967C85.9195 33.948 85.9105 34.974 85.9195 36H84.8485C84.8665 35.037 84.8665 34.128 84.8665 33.147C84.8665 32.409 84.6055 32.022 83.9485 32.022C83.2195 32.022 82.7965 32.571 82.7965 33.3V36H81.7345C81.7435 35.208 81.7525 34.425 81.7525 33.633C81.7525 32.859 81.7435 32.067 81.7345 31.284H82.8235L82.7965 32.112C83.0845 31.509 83.6605 31.176 84.3445 31.176C85.5595 31.176 85.9195 31.977 85.9195 32.967ZM89.2633 36.117C87.8323 36.117 86.9413 35.172 86.9413 33.651C86.9413 32.112 87.8323 31.176 89.2363 31.176C90.3343 31.176 91.0543 31.761 91.2793 32.742L90.2803 32.976C90.1543 32.391 89.7853 32.031 89.2183 32.031C88.4533 32.031 88.0033 32.652 88.0033 33.651C88.0033 34.668 88.4623 35.271 89.2363 35.271C89.8303 35.271 90.1903 34.902 90.3163 34.308L91.3153 34.524C91.1083 35.523 90.3793 36.117 89.2633 36.117ZM94.3166 31.176C95.7296 31.176 96.5216 32.13 96.4496 33.597L96.4406 33.795H93.0386C93.0926 34.713 93.5696 35.235 94.3166 35.235C94.9106 35.235 95.3066 34.965 95.4866 34.497L96.4406 34.686C96.1346 35.568 95.3786 36.117 94.3256 36.117C92.9036 36.117 92.0126 35.19 92.0126 33.669C92.0126 32.139 92.8766 31.176 94.3166 31.176ZM93.0926 33.066H95.4326C95.3516 32.382 94.9556 31.968 94.3076 31.968C93.6506 31.968 93.2276 32.373 93.0926 33.066ZM101.91 29.556C104.07 29.556 105.33 30.609 105.33 32.778C105.33 34.947 104.07 36 101.91 36H99.9482C99.9572 34.929 99.9662 33.849 99.9662 32.625C99.9662 31.707 99.9572 30.627 99.9482 29.556H101.91ZM101.91 35.082C103.566 35.082 104.205 34.164 104.205 32.778C104.205 31.392 103.566 30.474 101.91 30.474H101.082C101.073 31.23 101.064 31.968 101.064 32.625C101.064 33.498 101.073 34.308 101.082 35.082H101.91ZM110.831 36H109.751L109.679 35.109C109.391 35.73 108.896 36.117 108.239 36.117C107.033 36.117 106.304 35.019 106.304 33.651C106.304 32.292 107.024 31.176 108.23 31.176C108.86 31.176 109.337 31.491 109.634 32.022L109.652 31.284H110.696C110.678 32.22 110.669 32.859 110.669 33.606C110.669 34.371 110.732 35.118 110.831 36ZM108.527 35.271C109.247 35.271 109.697 34.623 109.697 33.597C109.697 32.643 109.301 32.022 108.527 32.022C107.762 32.022 107.366 32.715 107.366 33.651C107.366 34.587 107.771 35.271 108.527 35.271ZM113.886 36.117C112.869 36.117 111.969 35.712 111.69 34.812L112.662 34.542C112.851 35.109 113.346 35.325 113.895 35.325C114.372 35.325 114.786 35.145 114.786 34.74C114.786 34.317 114.399 34.164 113.787 34.02L113.238 33.885C112.446 33.696 111.807 33.327 111.807 32.544C111.807 31.608 112.698 31.176 113.76 31.176C114.705 31.176 115.398 31.545 115.74 32.238L114.84 32.553C114.624 32.166 114.228 31.968 113.706 31.968C113.283 31.968 112.815 32.121 112.815 32.508C112.815 32.85 113.157 32.958 113.679 33.075L114.345 33.237C115.02 33.399 115.803 33.732 115.803 34.695C115.803 35.631 114.948 36.117 113.886 36.117ZM120.873 36H119.802C119.811 35.037 119.811 34.128 119.811 33.147C119.811 32.409 119.559 32.022 118.902 32.022C118.164 32.022 117.777 32.571 117.777 33.3V36H116.715C116.742 34.92 116.742 33.858 116.742 32.778C116.742 31.707 116.733 30.627 116.715 29.556H117.777V32.094C118.056 31.509 118.623 31.176 119.298 31.176C120.513 31.176 120.864 31.977 120.864 32.967C120.864 33.948 120.864 34.974 120.873 36ZM124.542 31.176C125.748 31.176 126.468 32.292 126.468 33.651C126.468 35.019 125.739 36.117 124.533 36.117C123.894 36.117 123.408 35.748 123.111 35.154L123.03 36H121.968C122.103 34.848 122.13 33.885 122.13 32.778C122.13 31.698 122.121 30.636 122.094 29.556H123.147V32.013C123.444 31.482 123.921 31.176 124.542 31.176ZM124.245 35.271C125.001 35.271 125.406 34.587 125.406 33.651C125.406 32.715 125.01 32.022 124.245 32.022C123.471 32.022 123.075 32.643 123.075 33.597C123.075 34.623 123.525 35.271 124.245 35.271ZM129.587 36.117C128.102 36.117 127.292 35.064 127.292 33.651C127.292 32.238 128.102 31.176 129.587 31.176C131.081 31.176 131.882 32.238 131.882 33.651C131.882 35.064 131.081 36.117 129.587 36.117ZM129.587 35.271C130.379 35.271 130.829 34.605 130.829 33.651C130.829 32.688 130.379 32.022 129.587 32.022C128.804 32.022 128.354 32.688 128.354 33.651C128.354 34.605 128.804 35.271 129.587 35.271ZM137.233 36H136.153L136.081 35.109C135.793 35.73 135.298 36.117 134.641 36.117C133.435 36.117 132.706 35.019 132.706 33.651C132.706 32.292 133.426 31.176 134.632 31.176C135.262 31.176 135.739 31.491 136.036 32.022L136.054 31.284H137.098C137.08 32.22 137.071 32.859 137.071 33.606C137.071 34.371 137.134 35.118 137.233 36ZM134.929 35.271C135.649 35.271 136.099 34.623 136.099 33.597C136.099 32.643 135.703 32.022 134.929 32.022C134.164 32.022 133.768 32.715 133.768 33.651C133.768 34.587 134.173 35.271 134.929 35.271ZM139.416 32.382C139.704 31.599 140.298 31.185 141.063 31.176V32.247C139.929 32.175 139.416 32.859 139.416 34.029V36H138.354C138.363 35.208 138.372 34.425 138.372 33.633C138.372 32.859 138.363 32.067 138.354 31.284H139.443L139.416 32.175V32.382ZM145.995 36H144.933L144.852 35.154C144.555 35.748 144.069 36.117 143.43 36.117C142.224 36.117 141.495 35.019 141.495 33.651C141.495 32.292 142.215 31.176 143.421 31.176C144.042 31.176 144.519 31.482 144.816 32.013V29.556H145.869C145.842 30.636 145.833 31.698 145.833 32.778C145.833 33.885 145.86 34.848 145.995 36ZM143.718 35.271C144.438 35.271 144.888 34.623 144.888 33.597C144.888 32.643 144.492 32.022 143.718 32.022C142.953 32.022 142.557 32.715 142.557 33.651C142.557 34.587 142.962 35.271 143.718 35.271Z" fill="#0000C9"/>
</svg>
