<svg width="20" height="20" viewBox="0 0 20 20" fill="none" xmlns="http://www.w3.org/2000/svg">
<path fill-rule="evenodd" clip-rule="evenodd" d="M3.125 10C3.125 6.20304 6.20304 3.125 10 3.125C13.7969 3.125 16.875 6.20304 16.875 10C16.875 13.7969 13.7969 16.875 10 16.875C6.20304 16.875 3.125 13.7969 3.125 10ZM10 1.875C5.51268 1.875 1.875 5.51268 1.875 10C1.875 14.4873 5.51268 18.125 10 18.125C14.4873 18.125 18.125 14.4873 18.125 10C18.125 5.51268 14.4873 1.875 10 1.875ZM11.422 7.67278C11.2581 7.83701 11.0497 7.92362 10.8361 7.91623C10.6082 7.91623 10.4112 7.83699 10.2455 7.67373C10.0903 7.53551 9.99925 7.31724 10 7.08564C10 6.85843 10.0821 6.66271 10.2455 6.4985C10.4111 6.33407 10.6202 6.24602 10.8353 6.25028C11.0497 6.24434 11.2583 6.33265 11.422 6.4985C11.5846 6.66271 11.6667 6.85843 11.6667 7.08564C11.6676 7.31708 11.5768 7.53531 11.422 7.67373V7.67278ZM11.7132 13.1697C11.3697 13.2884 11.1002 13.3799 10.8957 13.4442C10.6933 13.5093 10.4549 13.5414 10.1853 13.5414C9.77267 13.5414 9.44958 13.45 9.22183 13.2718C9.00092 13.1115 8.87175 12.8538 8.87542 12.5809C8.87542 12.4738 8.88417 12.3658 8.90167 12.2529C8.92333 12.124 8.95058 11.9961 8.98342 11.8695L9.41167 10.5167C9.43325 10.4443 9.436 10.3757 9.43858 10.3085C9.44075 10.2548 9.44275 10.2021 9.45442 10.1489C9.48075 10.036 9.49342 9.928 9.49342 9.8375C9.49342 9.81083 9.49375 9.7855 9.49408 9.7615C9.49592 9.62433 9.49725 9.53008 9.43008 9.47542C9.36317 9.41875 9.25283 9.42067 9.09358 9.4235C9.056 9.42408 9.01575 9.42483 8.97275 9.42483C8.86083 9.42483 8.746 9.44142 8.63208 9.46867C8.57433 9.4845 8.52058 9.48633 8.47117 9.488C8.42067 9.48975 8.37467 9.49133 8.33333 9.50758L8.44817 9.08717C8.7255 8.984 8.99508 8.89833 9.25108 8.82825C9.486 8.75792 9.72983 8.72192 9.97508 8.72125C10.3888 8.72125 10.705 8.80683 10.9278 8.984C11.1508 9.16308 11.3969 9.39467 11.3969 9.67492C11.3969 9.7295 11.3887 9.82017 11.3768 9.95158L11.3736 9.98733C11.359 10.1333 11.3288 10.2686 11.2879 10.3922L10.7254 11.7401C10.6933 11.8471 10.6613 11.9717 10.634 12.1128C10.6047 12.2471 10.5902 12.3561 10.5902 12.4252C10.5902 12.6032 10.6369 12.7269 10.7254 12.7921C10.8159 12.8563 10.9717 12.8894 11.1916 12.8894C11.2938 12.8894 11.4116 12.8728 11.5429 12.8407C11.6752 12.8087 11.7688 12.7814 11.8271 12.7542L11.7132 13.1697Z" fill="#151517" fill-opacity="0.6"/>
</svg>
