<svg width="110" height="24" viewBox="0 0 110 24" fill="none" xmlns="http://www.w3.org/2000/svg">
<g clip-path="url(#clip0_5973_3862)">
<path d="M12.9386 0.4518L0.122602 22.647C-0.225398 23.2494 0.209002 24.0006 0.902602 24.0006H3.8402L12.9338 7.8894C13.2794 7.2774 14.1602 7.2774 14.5034 7.8894L23.597 24.0006H26.5322C27.2258 24.0006 27.6602 23.2494 27.3122 22.647L14.4986 0.4518C14.1506 -0.1506 13.2842 -0.1506 12.9362 0.4518H12.9386Z" fill="white"/>
<path d="M12.8733 15.0601L7.71094 24.0001H19.7205L14.5581 15.0601C14.1837 14.4097 13.2453 14.4097 12.8709 15.0601H12.8733Z" fill="white"/>
<path d="M44.1747 16.6177H36.1707L34.2867 21.5881H31.0371L38.5755 2.41211H41.7987L49.3371 21.5881H46.0875L44.1747 16.6177ZM37.1811 13.9681H43.1643L40.3515 6.59291C40.2699 6.40091 40.2147 6.18251 40.1883 5.93771C40.1619 6.18251 40.1067 6.40091 40.0251 6.59291L37.1835 13.9681H37.1811Z" fill="white"/>
<path d="M58.9377 10.4938C58.8009 10.4674 58.6737 10.4386 58.4289 10.4386C55.7241 10.4386 54.1137 12.301 54.1137 15.9634V21.5914H51.1641V8.19945H54.1137V10.6858C54.7137 8.90985 56.1633 7.87305 58.2657 7.87305C58.5657 7.87305 58.7481 7.89945 58.9401 7.92825V10.4962L58.9377 10.4938Z" fill="white"/>
<path d="M69.4395 10.4949H65.9979V16.6437C65.9979 18.3645 66.6531 19.0197 68.3739 19.0197C68.7291 19.0197 69.0579 19.0197 69.4395 18.9933V21.5325C69.0291 21.5589 68.3187 21.5877 67.8003 21.5877C64.2219 21.5877 63.0483 19.7301 63.0483 16.5885V10.4925H60.7539V7.92447H63.0483V4.19727H65.9979V7.92447H69.4395V10.4925V10.4949Z" fill="white"/>
<path d="M74.1796 15.4869C74.398 17.7549 76.1452 19.2021 78.3052 19.2021C80.0524 19.2021 81.4468 18.4365 82.0468 17.1813H85.1068C84.2884 19.9413 81.5836 21.7149 78.3316 21.7149C74.0428 21.7149 71.2012 18.4917 71.2012 14.6397C71.2012 10.7877 74.1796 7.56445 78.2476 7.56445C82.3156 7.56445 85.294 10.7613 85.294 14.6397C85.294 14.9397 85.294 15.2685 85.2676 15.4869H74.1772H74.1796ZM82.2388 13.4373C81.9652 11.4717 80.2996 10.0773 78.25 10.0773C76.2004 10.0773 74.5636 11.4165 74.2612 13.4373H82.2364H82.2388Z" fill="white"/>
<path d="M87.1152 2.40039H90.0648V16.7812C90.0648 18.3388 90.8304 19.0756 92.1144 19.0756C92.3592 19.0756 92.8488 19.0756 93.1224 19.0492V21.562C92.7408 21.5884 92.0064 21.6172 91.5144 21.6172C88.5912 21.6172 87.1176 20.0332 87.1176 16.8652V2.40039H87.1152Z" fill="white"/>
<path d="M106.588 21.5877V19.5021C105.715 20.8413 103.884 21.7149 101.863 21.7149C98.1475 21.7149 94.8691 18.9837 94.8691 14.6397C94.8691 10.2957 98.1475 7.56445 101.863 7.56445C103.884 7.56445 105.715 8.43805 106.588 9.77725V7.79725H109.538V21.5853H106.588V21.5877ZM102.218 19.1205C104.568 19.1205 106.588 17.3445 106.588 14.6397C106.588 11.9349 104.568 10.1589 102.218 10.1589C99.8683 10.1589 97.8475 11.9349 97.8475 14.6397C97.8475 17.3445 99.8683 19.1205 102.218 19.1205Z" fill="white"/>
</g>
<defs>
<clipPath id="clip0_5973_3862">
<rect width="109.538" height="24" fill="white"/>
</clipPath>
</defs>
</svg>
