<svg width="24" height="24" viewBox="0 0 24 24" fill="none" xmlns="http://www.w3.org/2000/svg">
<path d="M18.9308 5.66407C17.6561 5.07917 16.2892 4.64824 14.8599 4.40143C14.8339 4.39666 14.8079 4.40857 14.7945 4.43237C14.6187 4.74505 14.4239 5.15297 14.2876 5.47359C12.7503 5.24345 11.221 5.24345 9.71527 5.47359C9.57887 5.14584 9.37707 4.74505 9.20048 4.43237C9.18707 4.40936 9.16107 4.39746 9.13504 4.40143C7.70659 4.64745 6.33963 5.07838 5.06411 5.66407C5.05307 5.66883 5.04361 5.67677 5.03732 5.68708C2.44449 9.56072 1.73421 13.3391 2.08265 17.0707C2.08423 17.089 2.09447 17.1064 2.10867 17.1175C3.81934 18.3738 5.47642 19.1365 7.10273 19.642C7.12876 19.65 7.15634 19.6404 7.1729 19.619C7.55761 19.0936 7.90054 18.5397 8.19456 17.9572C8.21192 17.9231 8.19535 17.8826 8.15989 17.8691C7.61594 17.6627 7.098 17.4112 6.59977 17.1255C6.56037 17.1025 6.55721 17.0461 6.59347 17.0191C6.69831 16.9405 6.80318 16.8588 6.9033 16.7763C6.92141 16.7612 6.94665 16.758 6.96794 16.7675C10.2411 18.2619 13.7846 18.2619 17.0191 16.7675C17.0404 16.7572 17.0657 16.7604 17.0846 16.7755C17.1847 16.858 17.2895 16.9405 17.3952 17.0191C17.4314 17.0461 17.4291 17.1025 17.3897 17.1255C16.8914 17.4167 16.3735 17.6627 15.8288 17.8683C15.7933 17.8818 15.7775 17.9231 15.7949 17.9572C16.0952 18.5389 16.4381 19.0928 16.8157 19.6182C16.8315 19.6404 16.8599 19.65 16.8859 19.642C18.5201 19.1365 20.1772 18.3738 21.8879 17.1175C21.9028 17.1064 21.9123 17.0898 21.9139 17.0715C22.3309 12.7574 21.2154 9.00995 18.9568 5.68787C18.9513 5.67677 18.9419 5.66883 18.9308 5.66407ZM8.68335 14.7986C7.69792 14.7986 6.88594 13.8939 6.88594 12.7828C6.88594 11.6717 7.68217 10.767 8.68335 10.767C9.69239 10.767 10.4965 11.6797 10.4807 12.7828C10.4807 13.8939 9.68451 14.7986 8.68335 14.7986ZM15.329 14.7986C14.3435 14.7986 13.5316 13.8939 13.5316 12.7828C13.5316 11.6717 14.3278 10.767 15.329 10.767C16.338 10.767 17.1421 11.6797 17.1264 12.7828C17.1264 13.8939 16.338 14.7986 15.329 14.7986Z" fill="white"/>
</svg>
