<svg width="24" height="24" viewBox="0 0 24 24" fill="none" xmlns="http://www.w3.org/2000/svg">
<path d="M16.9455 17.3523C16.9478 17.3563 16.9507 17.3612 16.9545 17.3675L16.9548 17.3676H16.7844C16.6708 17.3676 16.5571 17.3676 16.4434 17.3676C16.0342 17.3675 15.625 17.3674 15.2157 17.3686C15.1704 17.3688 15.1413 17.3562 15.1137 17.3192C14.7899 16.8856 14.4656 16.4524 14.1413 16.0192C13.9081 15.7078 13.6749 15.3964 13.442 15.0849C13.1419 14.6836 12.8422 14.282 12.5426 13.8805C12.297 13.5514 12.0514 13.2224 11.8056 12.8934C11.2828 12.1941 10.7597 11.4951 10.2364 10.7961C10.0343 10.5261 9.83198 10.2562 9.6297 9.98631C9.34887 9.61161 9.06803 9.2369 8.78752 8.86194C8.33768 8.26066 7.88827 7.65895 7.43886 7.05723C7.34896 6.93687 7.25906 6.81651 7.16916 6.69615C7.16622 6.69223 7.16384 6.68794 7.16033 6.68163C7.15813 6.67767 7.15549 6.67292 7.15199 6.66696C7.16027 6.66637 7.1679 6.66568 7.17511 6.66502C7.1888 6.66377 7.20097 6.66267 7.21318 6.66267C7.35362 6.66264 7.49407 6.66264 7.63452 6.66264C8.05577 6.66264 8.47705 6.66264 8.89826 6.66181C8.93677 6.66169 8.96141 6.67309 8.98496 6.70461C9.54207 7.45192 10.0999 8.19863 10.6584 8.94484C10.9608 9.34896 11.2635 9.75288 11.5661 10.1568C11.8935 10.5937 12.2208 11.0306 12.5479 11.4677C12.8023 11.8077 13.0563 12.1479 13.3103 12.4881C13.5212 12.7706 13.7321 13.0531 13.9432 13.3354C14.2369 13.7282 14.5307 14.1208 14.8246 14.5135C15.0781 14.8523 15.3317 15.191 15.5851 15.5299C15.9362 15.9994 16.2872 16.4691 16.6382 16.9388C16.7377 17.0719 16.8372 17.2051 16.9367 17.3382C16.9395 17.3419 16.9419 17.3459 16.9455 17.3523Z" fill="white"/>
<path fill-rule="evenodd" clip-rule="evenodd" d="M4.59922 2.19922C3.27374 2.19922 2.19922 3.27374 2.19922 4.59922V19.3992C2.19922 20.7247 3.27374 21.7992 4.59922 21.7992H19.3992C20.7247 21.7992 21.7992 20.7247 21.7992 19.3992V4.59922C21.7992 3.27374 20.7247 2.19922 19.3992 2.19922H4.59922ZM13.2621 10.9902L18.0538 5.81382L18.0439 5.8002C17.9571 5.8002 17.8704 5.80025 17.7836 5.8003C17.511 5.80046 17.2383 5.80062 16.9657 5.79922C16.9187 5.79898 16.8862 5.81259 16.8545 5.84705C16.5533 6.17373 16.2515 6.49982 15.9497 6.82589C15.7985 6.9893 15.6472 7.1527 15.4961 7.31617C15.3034 7.52458 15.1108 7.7331 14.9183 7.94161C14.6833 8.19612 14.4482 8.45064 14.213 8.70497C13.9503 8.98887 13.6873 9.27246 13.4242 9.55605C13.3586 9.62684 13.2929 9.69763 13.2273 9.76843C13.0939 9.91219 12.9604 10.056 12.8254 10.2015L12.7426 10.2906C12.7377 10.2846 12.733 10.2791 12.7285 10.2737C12.7187 10.2622 12.7099 10.2518 12.7017 10.2409C12.5224 10.0011 12.3432 9.76129 12.164 9.52146C11.8452 9.09483 11.5264 8.66821 11.2074 8.24179C11.0317 8.00697 10.8559 7.77221 10.68 7.53747C10.2604 6.9771 9.8407 6.41676 9.42214 5.85551C9.39148 5.81443 9.36205 5.79922 9.31202 5.79922C8.22488 5.80027 7.13774 5.80024 6.0506 5.80021C5.86936 5.80021 5.68813 5.8002 5.50689 5.8002H5.42902C5.44145 5.81738 5.45287 5.83333 5.4637 5.84842C5.48417 5.87698 5.50247 5.90251 5.52124 5.92762C5.70387 6.17154 5.88659 6.41541 6.06932 6.65928C6.38422 7.07958 6.69914 7.49989 7.01366 7.9205C7.28481 8.28298 7.55559 8.64574 7.82638 9.00851C8.06933 9.33398 8.31228 9.65946 8.5555 9.98475C9.21256 10.8637 9.87011 11.7423 10.5283 12.6203C10.5477 12.6462 10.5512 12.6606 10.5272 12.6864C10.245 12.9905 9.9633 13.295 9.68166 13.5996C9.5105 13.7847 9.33933 13.9697 9.16805 14.1547C8.84279 14.5058 8.51736 14.8568 8.19192 15.2078C7.90031 15.5223 7.60868 15.8368 7.31717 16.1514C6.73774 16.7768 6.15867 17.4025 5.57961 18.0281C5.54217 18.0686 5.505 18.1095 5.46494 18.1535C5.44397 18.1766 5.42222 18.2005 5.39922 18.2257H5.47476C5.55703 18.2257 5.63931 18.2257 5.72158 18.2256C5.98243 18.2255 6.24328 18.2253 6.50413 18.2266C6.54643 18.2267 6.57599 18.2148 6.60481 18.1834C6.81376 17.9561 7.02352 17.7295 7.2333 17.5029C7.30619 17.4241 7.37908 17.3454 7.45194 17.2666C7.66947 17.0314 7.88694 16.7962 8.10441 16.561C8.44905 16.1883 8.79368 15.8155 9.13849 15.4429C9.49772 15.0548 9.85711 14.6667 10.2165 14.2787C10.4739 14.0008 10.7312 13.723 10.9885 13.445C11.0074 13.4247 11.0258 13.4039 11.0447 13.3823C11.0541 13.3715 11.0637 13.3606 11.0736 13.3495C11.2003 13.519 11.3265 13.688 11.4523 13.8565C11.892 14.4451 12.3276 15.0282 12.7635 15.6111C12.9293 15.8328 13.0951 16.0545 13.2609 16.2762C13.7377 16.9135 14.2144 17.5509 14.6904 18.1888C14.7155 18.2224 14.7436 18.2261 14.7795 18.2261C15.6912 18.2257 16.6029 18.2257 17.5145 18.2256C17.8774 18.2256 18.2402 18.2256 18.6031 18.2256C18.6159 18.2256 18.6287 18.2247 18.6447 18.2236C18.6527 18.2231 18.6614 18.2225 18.6714 18.2219C16.9353 15.901 15.2051 13.5879 13.4728 11.2719L13.2621 10.9902Z" fill="white"/>
</svg>
