<svg width="24" height="24" viewBox="0 0 24 24" fill="none" xmlns="http://www.w3.org/2000/svg">
<path fill-rule="evenodd" clip-rule="evenodd" d="M3.72029 11.001C8.87424 8.77127 12.311 7.30129 14.0306 6.59106C18.9404 4.56323 19.9606 4.21097 20.6256 4.19934C20.7718 4.19678 21.0989 4.23278 21.3107 4.40345C21.4895 4.54756 21.5387 4.74224 21.5623 4.87888C21.5858 5.01551 21.6152 5.32677 21.5919 5.56998C21.3258 8.34593 20.1745 15.0824 19.5888 18.1915C19.341 19.5071 18.853 19.9482 18.3806 19.9914C17.3539 20.0852 16.5743 19.3176 15.5799 18.6704C14.0239 17.6575 13.1448 17.027 11.6344 16.0387C9.8889 14.8965 11.0205 14.2687 12.0152 13.2427C12.2756 12.9742 16.7992 8.88854 16.8867 8.5179C16.8977 8.47154 16.9078 8.29876 16.8045 8.20752C16.7011 8.11628 16.5485 8.14748 16.4384 8.17229C16.2823 8.20747 13.7966 9.83895 8.98106 13.0667C8.27548 13.5479 7.63639 13.7823 7.06378 13.77C6.43253 13.7564 5.21826 13.4156 4.31557 13.1242C3.20838 12.7668 2.32842 12.5779 2.40504 11.9709C2.44495 11.6548 2.88337 11.3315 3.72029 11.001Z" fill="white"/>
</svg>
