<svg width="24" height="24" viewBox="0 0 24 24" fill="none" xmlns="http://www.w3.org/2000/svg">
<path fill-rule="evenodd" clip-rule="evenodd" d="M4.48887 4.60215C3.00777 6.08326 3.02136 8.55007 4.58369 10.1124C4.87659 10.4053 4.87659 10.8802 4.58369 11.173C4.2908 11.4659 3.81593 11.4659 3.52303 11.173C1.40398 9.05401 1.33267 5.63703 3.42821 3.54149C5.52375 1.44595 8.94073 1.51726 11.0598 3.63631C11.3527 3.92921 11.3527 4.40408 11.0598 4.69697C10.7669 4.98987 10.292 4.98987 9.99913 4.69697C8.43679 3.13464 5.96998 3.12105 4.48887 4.60215Z" fill="#000014"/>
<path fill-rule="evenodd" clip-rule="evenodd" d="M14.1488 6.65039C10.3819 6.65039 7.32812 9.70409 7.32812 13.471C7.32812 17.2379 10.3819 20.2916 14.1488 20.2916C17.9157 20.2916 20.9694 17.2379 20.9694 13.471C20.9694 9.70409 17.9157 6.65039 14.1488 6.65039ZM5.82812 13.471C5.82812 8.87566 9.5534 5.15039 14.1488 5.15039C18.7441 5.15039 22.4694 8.87566 22.4694 13.471C22.4694 18.0664 18.7441 21.7916 14.1488 21.7916C9.5534 21.7916 5.82812 18.0664 5.82812 13.471Z" fill="#000014"/>
<path fill-rule="evenodd" clip-rule="evenodd" d="M11.7793 13.5302L14.1455 15.8964L16.5117 13.5302L14.1455 11.1641L11.7793 13.5302Z" fill="#000014"/>
</svg>
