<svg  viewBox="0 0 1024 1024" version="1.1" xmlns="http://www.w3.org/2000/svg" p-id="512"><path d="M919.7 513.1h-58.1c-4.6 0-8.3 3.7-8.3 8.3v332H172.7V172.8h332c4.6 0 8.3-3.7 8.3-8.3v-58.1c0-4.6-3.7-8.3-8.3-8.3H131.2c-18.4 0-33.2 14.8-33.2 33.2v763.6c0 18.4 14.8 33.2 33.2 33.2h763.6c18.4 0 33.2-14.8 33.2-33.2V521.4c0-4.6-3.7-8.3-8.3-8.3z m0 0" fill="#000014" p-id="513"></path><path d="M351 536.9l-2 123.4c-0.1 9.2 7.4 16.8 16.6 16.8h0.4l122.4-3c2.1-0.1 4.1-0.9 5.6-2.4l431.5-430.6c3.2-3.2 3.2-8.5 0-11.7l-129-128.9c-1.7-1.7-3.7-2.4-5.9-2.4s-4.3 0.8-5.9 2.4L353.4 531.1c-1.4 1.5-2.4 3.6-2.4 5.8z m65.9 24.4l373.8-373 46.9 46.8-374 373.2-47.4 1.1 0.7-48.1z m0 0" fill="#000014" p-id="514"></path></svg>