<svg width="24" height="24" viewBox="0 0 24 24" fill="none" xmlns="http://www.w3.org/2000/svg">
<path fill-rule="evenodd" clip-rule="evenodd" d="M6.36986 3.86092C4.94845 4.69704 4.25 5.74363 4.25 6.75C4.25 7.75637 4.94845 8.80296 6.36986 9.63908C7.77393 10.465 9.76278 11 12 11C14.2372 11 16.2261 10.465 17.6301 9.63908C19.0516 8.80296 19.75 7.75637 19.75 6.75C19.75 5.74363 19.0516 4.69704 17.6301 3.86092C16.2261 3.03499 14.2372 2.5 12 2.5C9.76278 2.5 7.77393 3.03499 6.36986 3.86092ZM19.75 9.91981C19.3522 10.298 18.8921 10.637 18.3907 10.932C16.7184 11.9157 14.4572 12.5 12 12.5C9.5428 12.5 7.28165 11.9157 5.60933 10.932C5.10785 10.637 4.64776 10.298 4.25 9.91981V12.25C4.25 13.2564 4.94845 14.303 6.36986 15.1391C7.77393 15.965 9.76278 16.5 12 16.5C14.2372 16.5 16.2261 15.965 17.6301 15.1391C19.0516 14.303 19.75 13.2564 19.75 12.25V9.91981ZM19.75 15.4198C19.3522 15.798 18.8921 16.137 18.3907 16.432C16.7184 17.4157 14.4572 18 12 18C9.5428 18 7.28165 17.4157 5.60933 16.432C5.10785 16.137 4.64776 15.798 4.25 15.4198V17C4.25 18.0064 4.94845 19.053 6.36986 19.8891C7.77393 20.715 9.76278 21.25 12 21.25C14.2372 21.25 16.2261 20.715 17.6301 19.8891C19.0516 19.053 19.75 18.0064 19.75 17V15.4198ZM21.25 17C21.25 18.7551 20.0457 20.2085 18.3907 21.182C16.7184 22.1657 14.4572 22.75 12 22.75C9.5428 22.75 7.28165 22.1657 5.60933 21.182C3.95434 20.2085 2.75 18.7551 2.75 17V6.75C2.75 4.99494 3.95434 3.54154 5.60933 2.56802C7.28165 1.5843 9.5428 1 12 1C14.4572 1 16.7184 1.5843 18.3907 2.56802C20.0457 3.54154 21.25 4.99494 21.25 6.75V17Z" fill="#F5FBFF"/>
</svg>
