<svg width="24" height="24" viewBox="0 0 24 24" fill="none" xmlns="http://www.w3.org/2000/svg">
<path fill-rule="evenodd" clip-rule="evenodd" d="M12.4248 3.75C9.1111 3.75 6.4248 6.4363 6.4248 9.75003C6.4248 11.4283 7.11292 12.9447 8.22437 14.0345C8.30805 14.0282 8.39237 14.025 8.47719 14.025H13.3088C14.0478 14.025 14.6609 14.5653 14.7741 15.2729C16.9211 14.3584 18.4248 12.229 18.4248 9.75003C18.4248 6.4363 15.7385 3.75 12.4248 3.75ZM4.9248 9.75003C4.9248 11.5772 5.57891 13.2525 6.66443 14.5532C6.13329 14.8914 5.69664 15.378 5.41931 15.9717L5.06743 16.725H2.97481C2.60201 16.725 2.2998 17.0273 2.2998 17.4C2.2998 17.7728 2.60201 18.0751 2.97481 18.0751H5.21067C5.64762 18.0751 6.04505 17.822 6.22997 17.4262L6.64246 16.5431C6.97532 15.8305 7.69068 15.375 8.47719 15.375H13.3088C13.3826 15.375 13.4425 15.4347 13.4427 15.5086L13.4467 16.725H11.3563C10.9835 16.725 10.6813 17.0273 10.6813 17.4C10.6813 17.7728 10.9835 18.0751 11.3563 18.0751H14.6687C14.8193 18.0751 14.9658 18.0262 15.0863 17.9358L19.2937 14.7797C19.6079 14.5441 20.0569 14.632 20.2589 14.9688C20.4264 15.2479 20.3661 15.6074 20.1168 15.8167L16.0754 19.2087C15.2162 19.9298 14.1304 20.3251 13.0087 20.3251H2.97481C2.60201 20.3251 2.2998 20.6273 2.2998 21.0001C2.2998 21.3729 2.60201 21.6751 2.97481 21.6751H13.0087C14.4478 21.6751 15.8409 21.1679 16.9433 20.2427L20.9847 16.8507C21.7424 16.2148 21.9255 15.1224 21.4165 14.2742C20.899 13.4116 19.848 13.0863 18.9589 13.4344C19.5738 12.3464 19.9248 11.0894 19.9248 9.75003C19.9248 5.60788 16.5669 2.25 12.4248 2.25C8.28269 2.25 4.9248 5.60788 4.9248 9.75003ZM14.7958 16.4584L14.798 16.4645L14.7959 16.4661L14.7958 16.4584ZM12.3857 11.9223L10.1748 9.7113L12.3857 7.50034L14.5967 9.7113L12.3857 11.9223Z" fill="#F5FBFF"/>
</svg>
