<svg width="24" height="24" viewBox="0 0 24 24" fill="none" xmlns="http://www.w3.org/2000/svg">
<path d="M19.75 6.75H4.75C4.55109 6.75 4.36032 6.67098 4.21967 6.53033C4.07902 6.38968 4 6.19891 4 6C4 5.80109 4.07902 5.61032 4.21967 5.46967C4.36032 5.32902 4.55109 5.25 4.75 5.25H17.5C17.6989 5.25 17.8897 5.17098 18.0303 5.03033C18.1709 4.88968 18.25 4.69891 18.25 4.5C18.25 4.30109 18.1709 4.11032 18.0303 3.96967C17.8897 3.82902 17.6989 3.75 17.5 3.75H4.75C4.15326 3.75 3.58097 3.98705 3.15901 4.40901C2.73705 4.83097 2.5 5.40326 2.5 6V18C2.5 18.5967 2.73705 19.169 3.15901 19.591C3.58097 20.0129 4.15326 20.25 4.75 20.25H19.75C20.1478 20.25 20.5293 20.092 20.8106 19.8106C21.092 19.5293 21.25 19.1478 21.25 18.75V8.25C21.25 7.8522 21.092 7.47064 20.8106 7.18934C20.5293 6.90803 20.1478 6.75 19.75 6.75ZM19.75 18.75H4.75C4.55109 18.75 4.36032 18.6709 4.21967 18.5303C4.07902 18.3897 4 18.1989 4 18V8.12153C4.24082 8.20695 4.4945 8.25038 4.75 8.25H19.75V18.75ZM15.25 13.125C15.25 12.9025 15.316 12.685 15.4396 12.4999C15.5632 12.315 15.7389 12.1708 15.9445 12.0857C16.1501 12.0005 16.3763 11.9782 16.5945 12.0216C16.8127 12.065 17.0132 12.1722 17.1705 12.3295C17.3278 12.4868 17.435 12.6873 17.4784 12.9055C17.5218 13.1237 17.4995 13.3499 17.4143 13.5555C17.3292 13.7611 17.185 13.9368 17.0001 14.0604C16.815 14.184 16.5975 14.25 16.375 14.25C16.0767 14.25 15.7905 14.1315 15.5795 13.9205C15.3685 13.7095 15.25 13.4233 15.25 13.125Z" fill="#F5FBFF"/>
</svg>
